<svg width="168" height="32" viewBox="0 0 168 32" fill="none" xmlns="http://www.w3.org/2000/svg">
<path d="M50.1567 12.4667V10.4127H60.9467V12.4667H50.1567ZM54.3687 28.7427V10.4127H56.7347V28.7427H54.3687ZM61.1777 22.8927V21.2027H70.0437V22.8927H61.1777ZM65.2077 29.1587V27.1047H65.3377V29.1587H65.2077ZM60.4237 24.0887V20.2667H62.7897V24.0887H60.4237ZM67.6777 21.2027V19.8507H70.0437V21.2027H67.6777ZM70.0437 19.8507H67.6777C67.6777 19.088 67.4437 18.464 66.9757 17.9787C66.525 17.4933 65.9357 17.2507 65.2077 17.2507V15.2227C66.1437 15.2227 66.967 15.422 67.6777 15.8207C68.4057 16.2193 68.9777 16.774 69.3937 17.4847C69.827 18.178 70.0437 18.9667 70.0437 19.8507ZM67.7817 24.8427L69.9917 25.2847C69.8877 26.03 69.619 26.6973 69.1857 27.2867C68.7523 27.876 68.2063 28.3353 67.5477 28.6647C66.889 28.994 66.1523 29.1587 65.3377 29.1587V27.1047C65.9617 27.1047 66.499 26.9227 66.9497 26.5587C67.4177 26.1773 67.695 25.6053 67.7817 24.8427ZM60.4237 20.2927C60.4237 19.3047 60.6317 18.438 61.0477 17.6927C61.481 16.93 62.053 16.332 62.7637 15.8987C63.4917 15.448 64.315 15.2227 65.2337 15.2227V17.2507C64.471 17.2507 63.873 17.5193 63.4397 18.0567C63.0063 18.5767 62.7897 19.322 62.7897 20.2927H60.4237ZM60.4237 24.0887H62.7897C62.7897 25.042 63.0063 25.7873 63.4397 26.3247C63.873 26.8447 64.471 27.1047 65.2337 27.1047V29.1587C64.315 29.1587 63.4917 28.942 62.7637 28.5087C62.053 28.058 61.481 27.4513 61.0477 26.6887C60.6317 25.926 60.4237 25.0593 60.4237 24.0887ZM72.0587 24.1147V20.2407H74.4247V24.1147H72.0587ZM72.0587 20.2667C72.0587 19.296 72.2667 18.4293 72.6827 17.6667C73.116 16.904 73.688 16.306 74.3987 15.8727C75.1267 15.422 75.95 15.1967 76.8687 15.1967V17.2507C76.106 17.2507 75.508 17.5107 75.0747 18.0307C74.6413 18.5507 74.4247 19.296 74.4247 20.2667H72.0587ZM79.2867 19.5127C79.2 18.7327 78.9227 18.1607 78.4547 17.7967C78.004 17.4327 77.4667 17.2507 76.8427 17.2507V15.1967C77.6573 15.1967 78.394 15.3613 79.0527 15.6907C79.7113 16.02 80.2573 16.4793 80.6907 17.0687C81.124 17.6407 81.3927 18.308 81.4967 19.0707L79.2867 19.5127ZM72.0587 24.0887H74.4247C74.4247 25.042 74.6413 25.7873 75.0747 26.3247C75.508 26.8447 76.106 27.1047 76.8687 27.1047V29.1587C75.95 29.1587 75.1267 28.942 74.3987 28.5087C73.688 28.058 73.116 27.4513 72.6827 26.6887C72.2667 25.926 72.0587 25.0593 72.0587 24.0887ZM79.2867 24.8427L81.4967 25.2847C81.3927 26.03 81.124 26.6973 80.6907 27.2867C80.2573 27.876 79.7113 28.3353 79.0527 28.6647C78.394 28.994 77.6573 29.1587 76.8427 29.1587V27.1047C77.4667 27.1047 78.004 26.9227 78.4547 26.5587C78.9227 26.1773 79.2 25.6053 79.2867 24.8427ZM83.5698 28.7427V15.6127H85.9358V28.7427H83.5698ZM90.8758 28.7427V19.7987H93.2418V28.7427H90.8758ZM90.8758 19.7987C90.8758 19.0707 90.6504 18.4813 90.1998 18.0307C89.7491 17.5627 89.1684 17.3287 88.4578 17.3287L89.0558 15.2227C89.8531 15.2227 90.5638 15.422 91.1878 15.8207C91.8291 16.2193 92.3318 16.7653 92.6958 17.4587C93.0598 18.152 93.2418 18.932 93.2418 19.7987H90.8758ZM84.8958 19.8507C84.8958 18.9667 85.0778 18.178 85.4418 17.4847C85.8058 16.774 86.2998 16.2193 86.9238 15.8207C87.5478 15.422 88.2584 15.2227 89.0558 15.2227L88.4578 17.3287C87.7124 17.3287 87.1058 17.5627 86.6378 18.0307C86.1698 18.4987 85.9358 19.1053 85.9358 19.8507H84.8958ZM83.5698 28.7427V10.0227H85.9358V28.7427H83.5698ZM102.577 20.6567V18.5507H107.829V20.6567H102.577ZM100.861 10.4127H103.227V28.7427H100.861V10.4127ZM102.447 10.4127H109.129V12.4667H102.447V10.4127ZM120.502 15.6127V28.7427H118.136V15.6127H120.502ZM113.196 15.6127V24.5567H110.83V15.6127H113.196ZM113.196 24.5567C113.196 25.2847 113.421 25.8827 113.872 26.3507C114.34 26.8013 114.929 27.0267 115.64 27.0267L115.042 29.1327C114.227 29.1327 113.499 28.9333 112.858 28.5347C112.234 28.136 111.74 27.59 111.376 26.8967C111.012 26.2033 110.83 25.4233 110.83 24.5567H113.196ZM119.176 24.4787C119.176 25.3627 118.994 26.16 118.63 26.8707C118.283 27.564 117.789 28.1187 117.148 28.5347C116.524 28.9333 115.822 29.1327 115.042 29.1327L115.64 27.0267C116.368 27.0267 116.966 26.7927 117.434 26.3247C117.902 25.8567 118.136 25.2413 118.136 24.4787H119.176ZM124.469 24.7647V10.3867L126.835 10.4127V24.7647H124.469ZM122.961 17.5627V15.6127H130.111V17.5627H122.961ZM124.469 24.7387H126.835C126.835 25.2413 126.904 25.666 127.043 26.0127C127.181 26.3593 127.381 26.628 127.641 26.8187C127.901 26.992 128.213 27.0787 128.577 27.0787L128.369 29.1327C127.155 29.1327 126.202 28.7513 125.509 27.9887C124.815 27.2087 124.469 26.1253 124.469 24.7387ZM129.799 26.6367L130.735 28.3267C130.388 28.5867 130.007 28.786 129.591 28.9247C129.192 29.0633 128.785 29.1327 128.369 29.1327L128.577 27.0787C128.802 27.0787 129.01 27.044 129.201 26.9747C129.409 26.888 129.608 26.7753 129.799 26.6367ZM141.957 15.6127V28.7427H139.591V15.6127H141.957ZM134.651 15.6127V24.5567H132.285V15.6127H134.651ZM134.651 24.5567C134.651 25.2847 134.877 25.8827 135.327 26.3507C135.795 26.8013 136.385 27.0267 137.095 27.0267L136.497 29.1327C135.683 29.1327 134.955 28.9333 134.313 28.5347C133.689 28.136 133.195 27.59 132.831 26.8967C132.467 26.2033 132.285 25.4233 132.285 24.5567H134.651ZM140.631 24.4787C140.631 25.3627 140.449 26.16 140.085 26.8707C139.739 27.564 139.245 28.1187 138.603 28.5347C137.979 28.9333 137.277 29.1327 136.497 29.1327L137.095 27.0267C137.823 27.0267 138.421 26.7927 138.889 26.3247C139.357 25.8567 139.591 25.2413 139.591 24.4787H140.631ZM145.066 28.7427V15.6127H147.432V28.7427H145.066ZM146.366 19.9547C146.366 19.0707 146.513 18.282 146.808 17.5887C147.103 16.878 147.501 16.3233 148.004 15.9247C148.524 15.526 149.096 15.3267 149.72 15.3267L149.512 17.5367C148.905 17.5367 148.403 17.7707 148.004 18.2387C147.623 18.6893 147.432 19.2613 147.432 19.9547H146.366ZM151.072 18.1347C150.864 17.9613 150.613 17.8227 150.318 17.7187C150.041 17.5973 149.772 17.5367 149.512 17.5367L149.72 15.3267C150.119 15.3267 150.509 15.4047 150.89 15.5607C151.271 15.6993 151.601 15.8987 151.878 16.1587L151.072 18.1347ZM159.982 28.7427V19.7987H162.348V28.7427H159.982ZM156.81 29.1327L156.992 27.1827C157.616 27.1827 158.145 27.0267 158.578 26.7147C159.029 26.4027 159.376 25.9433 159.618 25.3367C159.861 24.73 159.982 24.0107 159.982 23.1787L161.152 23.1267C161.152 24.3053 160.962 25.3453 160.58 26.2467C160.199 27.148 159.679 27.8587 159.02 28.3787C158.379 28.8813 157.642 29.1327 156.81 29.1327ZM156.81 29.1327C156.03 29.1327 155.32 28.9507 154.678 28.5867C154.037 28.2227 153.526 27.7287 153.144 27.1047C152.763 26.4633 152.572 25.7527 152.572 24.9727L154.808 24.8947C154.808 25.5533 155.025 26.0993 155.458 26.5327C155.909 26.966 156.42 27.1827 156.992 27.1827L156.81 29.1327ZM152.572 24.9727C152.572 24.158 152.772 23.4473 153.17 22.8407C153.586 22.2167 154.141 21.7227 154.834 21.3587C155.528 20.9947 156.316 20.8127 157.2 20.8127L157.33 22.6327C156.602 22.6327 155.996 22.8493 155.51 23.2827C155.042 23.6987 154.808 24.236 154.808 24.8947L152.572 24.9727ZM157.33 22.6327L157.2 20.8127H161.204V22.6327H157.33ZM159.982 23.1787V19.8247H161.152V23.1267L159.982 23.1787ZM162.348 19.8507H159.982C159.982 19.088 159.748 18.464 159.28 17.9787C158.83 17.4933 158.24 17.2507 157.512 17.2507V15.2227C158.448 15.2227 159.272 15.422 159.982 15.8207C160.71 16.2193 161.282 16.774 161.698 17.4847C162.132 18.178 162.348 18.9667 162.348 19.8507ZM155.068 19.5387L152.884 19.0967C152.988 18.3167 153.248 17.6407 153.664 17.0687C154.098 16.4967 154.644 16.046 155.302 15.7167C155.978 15.3873 156.724 15.2227 157.538 15.2227V17.2507C156.897 17.2507 156.342 17.4413 155.874 17.8227C155.424 18.1867 155.155 18.7587 155.068 19.5387Z" fill="#0F22D1"/>
<path d="M31.8539 0H2.01975C1.7428 0 1.47325 0.0894156 1.2512 0.254942C0.602711 0.738371 0.556264 1.69334 1.15478 2.23742L1.2083 2.28607C1.45596 2.51121 1.77865 2.63596 2.11335 2.63596H15.2734V24.5345C15.2734 25.472 16.0334 26.2321 16.971 26.2321C17.8543 26.2321 18.5713 25.5177 18.5746 24.6344L18.6186 12.8V12.4839V12.0889V11.5358V10.5086V10.1441V2.63596H31.791C32.148 2.63596 32.4901 2.49342 32.7415 2.24003L32.7736 2.20767C33.2959 1.68113 33.2703 0.824403 32.7175 0.32993C32.48 0.117464 32.1725 0 31.8539 0Z" fill="url(#paint0_linear_121_81)"/>
<path d="M37.2639 5.76103L22.4929 5.55599C21.4934 5.54211 20.6758 6.3485 20.6758 7.34804L20.6758 8.40375L20.6758 30.3023C20.6758 31.2398 21.4358 31.9999 22.3733 31.9999C23.2557 31.9999 23.971 31.2846 23.971 30.4022V18.5272H31.0608H37.2158C37.559 18.5272 37.8888 18.3933 38.1349 18.154L38.1513 18.1379C38.6859 17.618 38.6728 16.7554 38.1227 16.252C37.8837 16.0332 37.5714 15.9119 37.2474 15.9119H24.0209V8.40375H37.1934C37.5503 8.40375 37.8925 8.26122 38.1438 8.00782L38.1706 7.98085C38.6958 7.45138 38.6701 6.5899 38.1143 6.09267C37.8801 5.88318 37.5781 5.7654 37.2639 5.76103Z" fill="url(#paint1_linear_121_81)"/>
<defs>
<linearGradient id="paint0_linear_121_81" x1="16.8671" y1="0" x2="16.8671" y2="26.2321" gradientUnits="userSpaceOnUse">
<stop stop-color="#3C4FFF"/>
</linearGradient>
<linearGradient id="paint1_linear_121_81" x1="22.2695" y1="5.7678" x2="22.2695" y2="31.9999" gradientUnits="userSpaceOnUse">
<stop offset="1" stop-color="#8B5CF6"/>
</linearGradient>
</defs>
</svg>
